<?xml version="1.0" encoding="utf-8"?><svg viewBox="0 0 32 32" xmlns="http://www.w3.org/2000/svg" xmlns:xlink="http://www.w3.org/1999/xlink"><style>:root>svg{display:none}:root>svg:target{display:block}</style><svg fill="none" viewBox="0 0 24 24" id="i-arrow-right" xmlns="http://www.w3.org/2000/svg"><defs><clipPath id="aa"><path transform="translate(0 -.922)" fill="#fff" fill-opacity="0" d="M0 0h24v24H0z"/></clipPath></defs><g clip-path="url(#aa)"><path d="m10 6.07 5 5-5 5" stroke="#8A90A4" stroke-width="2" stroke-linejoin="round" stroke-linecap="round"/></g></svg><svg fill="none" viewBox="0 0 24 24" id="i-arrow-up" xmlns="http://www.w3.org/2000/svg"><path d="M12 19V5M5 12l7-7 7 7" stroke="#fff" stroke-width="2" stroke-linecap="round" stroke-linejoin="round"/></svg><svg fill="none" viewBox="0 0 24 24" id="i-call" xmlns="http://www.w3.org/2000/svg"><defs><clipPath id="ca"><path fill="#fff" fill-opacity="0" d="M0 0h24v24H0z"/></clipPath></defs><g clip-path="url(#ca)"><path d="m19.22 14.75-3.76-1.69h-.01a1.273 1.273 0 0 0-1.22.11c-.02.01-.04.03-.06.04l-1.95 1.66c-1.23-.59-2.5-1.86-3.1-3.07l1.66-1.98c.02-.02.03-.04.05-.06.11-.18.18-.38.2-.59.02-.21-.01-.42-.1-.62v-.01L9.24 4.76c-.11-.25-.3-.46-.54-.6-.24-.13-.52-.19-.79-.16-1.09.15-2.08.68-2.8 1.5-.72.82-1.12 1.88-1.11 2.98C4 14.83 9.16 20 15.52 20a4.512 4.512 0 0 0 4.47-3.92c.03-.27-.03-.55-.16-.79-.14-.24-.35-.43-.61-.54Z" fill="#EA3222" fill-rule="evenodd"/><path d="M13.62 5.11a.57.57 0 0 1 .11-.22c.05-.07.11-.13.18-.17.08-.04.16-.07.24-.08.08-.01.17 0 .25.02a6.891 6.891 0 0 1 4.93 4.93c.03.08.03.17.02.25-.01.08-.04.16-.08.24-.04.07-.1.13-.17.18a.46.46 0 0 1-.22.11c-.05.02-.11.03-.16.03-.15 0-.28-.05-.39-.14a.54.54 0 0 1-.23-.34c-.26-.97-.76-1.85-1.47-2.56a5.687 5.687 0 0 0-2.56-1.47.57.57 0 0 1-.22-.11.581.581 0 0 1-.17-.18.754.754 0 0 1-.08-.24c-.01-.08 0-.17.02-.25Zm-.19 3.35c1.1.29 1.81 1 2.11 2.1.03.14.11.26.23.35.11.08.24.12.39.12.05 0 .11 0 .16-.02.08-.02.16-.05.22-.1a.75.75 0 0 0 .17-.19c.04-.08.07-.16.08-.24.01-.08.01-.17-.02-.25-.41-1.53-1.48-2.6-3.01-3.01a.533.533 0 0 0-.25-.02c-.08.01-.16.04-.23.08a.52.52 0 0 0-.19.17.57.57 0 0 0-.11.22c-.02.08-.03.16-.02.25.01.08.04.16.08.24.04.07.1.13.17.18.06.05.14.09.22.12Z" fill="#FFF"/></g></svg><svg fill="none" viewBox="0 0 24 24" id="i-check" xmlns="http://www.w3.org/2000/svg"><g clip-path="url(#clip406_3586)"><rect x="4" y="4" rx="2" width="16" height="16" fill="#00AFFF"/><path d="m16.79 10.21-5.53 5.58c-.07.07-.14.12-.23.15a.583.583 0 0 1-.52 0 .574.574 0 0 1-.23-.15L7.2 12.66a.697.697 0 0 1 0-.98l1.03-1.05c.13-.13.3-.2.49-.2.18 0 .35.07.48.2l1.58 1.54h.01l3.99-3.97a.697.697 0 0 1 .98 0l1.03 1.02c.07.07.12.14.15.23.04.08.05.17.06.27 0 .09-.02.18-.06.26-.03.09-.08.16-.15.23Z" fill="#FFF" fill-rule="evenodd"/></g></svg><svg fill="none" viewBox="0 0 24 24" id="i-check-empty" xmlns="http://www.w3.org/2000/svg"><g clip-path="url(#clip268_301)"><rect x="4" y="4" rx="2" width="16" height="16"/><rect x="4.5" y="4.5" rx="2" width="15" height="15" stroke="#BEC2D4"/></g></svg><svg fill="none" viewBox="0 0 24 24" id="i-check-without-bg" xmlns="http://www.w3.org/2000/svg"><defs><clipPath id="ea"><path fill="#fff" fill-opacity="0" d="M0 0h24v24H0z"/></clipPath></defs><g clip-path="url(#ea)"><path d="m20.05 9.54-8.86 8.85c-.1.1-.22.18-.36.24-.13.05-.27.08-.42.08-.14 0-.29-.03-.42-.08a1.26 1.26 0 0 1-.36-.24l-4.94-4.96c-.2-.21-.32-.49-.32-.78 0-.3.12-.58.32-.78l1.66-1.66c.21-.2.48-.32.78-.32.29 0 .57.11.78.32l2.52 2.43.01.01 6.39-6.3c.21-.21.49-.32.78-.32.29 0 .57.11.78.32l1.65 1.62c.11.1.19.23.25.36.05.13.08.28.08.42 0 .15-.03.29-.08.43-.06.13-.14.25-.24.36Z" fill="#FFF"/></g></svg><svg fill="none" viewBox="0 0 24 24" id="i-close" xmlns="http://www.w3.org/2000/svg"><defs><clipPath id="ga"><path fill="#fff" fill-opacity="0" d="M0 0h24v24H0z"/></clipPath></defs><g clip-path="url(#ga)"><path d="M17.75 6.34a1.02 1.02 0 0 0-1.43 0l-4.27 4.28-4.28-4.28a1.02 1.02 0 0 0-1.43 0 1.02 1.02 0 0 0 0 1.43l4.28 4.28-4.28 4.27c-.39.4-.39 1.04 0 1.43.39.39 1.03.39 1.43 0l4.28-4.28 4.27 4.28c.4.39 1.04.39 1.43 0 .39-.39.39-1.03 0-1.43l-4.28-4.27 4.28-4.28c.39-.4.39-1.04 0-1.43Z" fill="#FFF" fill-rule="evenodd"/></g></svg><svg fill="none" viewBox="0 0 24 24" id="i-facebook" xmlns="http://www.w3.org/2000/svg"><defs><clipPath id="ha"><path fill="#fff" fill-opacity="0" d="M0 0h24v24H0z"/></clipPath></defs><g clip-path="url(#ha)"><path d="M20 11.99a8.03 8.03 0 0 1-2.02 5.3 7.97 7.97 0 0 1-5.03 2.64c-.04.01-.08 0-.13-.01-.04-.01-.08-.04-.11-.06a.259.259 0 0 1-.07-.11.277.277 0 0 1-.03-.13v-5.78h1.85c.08 0 .16-.02.24-.06.08-.03.15-.08.21-.14.05-.06.1-.13.13-.21a.54.54 0 0 0 .03-.25.578.578 0 0 0-.2-.41.631.631 0 0 0-.43-.17h-1.83v-1.84a1.225 1.225 0 0 1 1.23-1.23h1.23c.09 0 .17-.02.25-.05.07-.04.14-.09.2-.15s.1-.13.13-.21a.69.69 0 0 0 .04-.25.654.654 0 0 0-.21-.41.579.579 0 0 0-.43-.16h-1.21c-.65 0-1.28.26-1.74.72-.46.46-.72 1.09-.72 1.74v1.84H9.53c-.08 0-.16.02-.24.06-.08.03-.15.08-.21.14-.05.06-.1.13-.13.21a.54.54 0 0 0-.03.25c.01.16.08.31.2.41.12.11.28.17.43.17h1.83v5.79c0 .04-.01.08-.03.12a.259.259 0 0 1-.18.17c-.05.01-.09.02-.13.01a8.018 8.018 0 0 1-5.13-2.75A8.03 8.03 0 0 1 4 11.69C4.15 7.53 7.52 4.16 11.68 4c1.07-.05 2.15.13 3.15.51a8.003 8.003 0 0 1 4.52 4.35c.43.99.64 2.05.65 3.13Z" fill="#00AFFF"/></g></svg><svg fill="none" viewBox="0 0 24 24" id="i-filters-menu" xmlns="http://www.w3.org/2000/svg"><defs><clipPath id="ia"><path fill="#fff" fill-opacity="0" d="M0 0h24v24H0z"/></clipPath></defs><g clip-path="url(#ia)"><path d="M5 9h2.208a2.5 2.5 0 0 0 4.584 0H19a1 1 0 0 0 0-2h-7.208a2.5 2.5 0 0 0-4.584 0H5a1 1 0 0 0 0 2Zm7.208 8H5a1 1 0 0 1 0-2h7.208a2.501 2.501 0 0 1 4.584 0H19a1 1 0 0 1 0 2h-2.208a2.501 2.501 0 0 1-4.584 0Z" clip-rule="evenodd" fill="#21242F" fill-rule="evenodd"/></g></svg><svg fill="none" viewBox="0 0 24 24" id="i-info" xmlns="http://www.w3.org/2000/svg"><defs><clipPath id="ja"><path fill="#fff" fill-opacity="0" d="M0 0h24v24H0z"/></clipPath></defs><path fill="none" d="M0 0h24v24H0z"/><g clip-path="url(#ja)"><path d="M4 12a8 8 0 1 1 16 0 8 8 0 0 1-16 0Zm6.5-3.5a1.5 1.5 0 1 1 3 0 1.5 1.5 0 0 1-3 0Zm2.383 2.576C12.699 11 12.466 11 12 11s-.699 0-.883.076a1 1 0 0 0-.54.541c-.077.184-.077.417-.077.883v3c0 .466 0 .699.076.883a1 1 0 0 0 .541.54c.184.077.417.077.883.077s.699 0 .883-.076a1 1 0 0 0 .54-.541c.077-.184.077-.417.077-.883v-3c0-.466 0-.699-.076-.883a1 1 0 0 0-.541-.54Z" clip-rule="evenodd" fill="#8A90A4" fill-rule="evenodd"/></g></svg><svg fill="none" viewBox="0 0 24 24" id="i-instagram" xmlns="http://www.w3.org/2000/svg"><defs><clipPath id="ka"><path fill="#fff" fill-opacity="0" d="M0 0h24v24H0z"/></clipPath></defs><g clip-path="url(#ka)"><path d="M15.69 4H8.3c-1.14 0-2.23.45-3.04 1.26S4 7.16 4 8.3v7.39c0 1.14.45 2.23 1.26 3.04S7.16 19.99 8.3 20h7.39c1.14-.01 2.23-.46 3.04-1.27s1.26-1.9 1.27-3.04V8.3a4.343 4.343 0 0 0-1.27-3.04C17.92 4.45 16.83 4 15.69 4ZM12 15.69c-.74 0-1.45-.22-2.06-.62a3.8 3.8 0 0 1-1.36-1.66c-.28-.68-.35-1.42-.21-2.14.15-.71.5-1.37 1.01-1.89.52-.51 1.18-.86 1.89-1.01.72-.14 1.46-.07 2.14.21a3.8 3.8 0 0 1 1.66 1.36c.4.61.62 1.32.62 2.06 0 .97-.39 1.91-1.09 2.6-.69.7-1.63 1.09-2.6 1.09Zm4.61-7.39c-.18 0-.36-.05-.51-.15a.936.936 0 0 1-.34-.42.876.876 0 0 1-.05-.53c.03-.18.12-.34.25-.47.13-.13.29-.22.47-.26.18-.03.36-.01.53.06.17.07.32.18.42.34.1.15.15.33.15.51 0 .24-.09.48-.27.65-.17.18-.4.27-.65.27ZM14.46 12c0 .48-.15.96-.42 1.36a2.443 2.443 0 0 1-2.53 1.05c-.47-.1-.91-.33-1.26-.67a2.58 2.58 0 0 1-.67-1.26 2.443 2.443 0 0 1 1.05-2.53c.4-.27.88-.42 1.37-.42.65 0 1.27.26 1.74.72.46.47.72 1.09.72 1.75Z" fill="#00AFFF"/></g></svg><svg fill="none" viewBox="0 0 24 24" id="i-linkedin" xmlns="http://www.w3.org/2000/svg"><defs><clipPath id="la"><path fill="#fff" fill-opacity="0" d="M0 0h24v24H0z"/></clipPath></defs><path fill="none" d="M0 0h24v24H0z"/><g clip-path="url(#la)"><path d="M18.76 4H5.23c-.33 0-.64.12-.87.36-.24.23-.36.54-.36.87v13.53c0 .33.12.64.36.87.23.24.54.37.87.37h13.53c.33 0 .64-.13.87-.37.24-.23.37-.54.37-.87V5.23c0-.33-.13-.64-.37-.87-.23-.24-.54-.36-.87-.36ZM9.53 15.69c0 .16-.06.32-.18.43-.11.12-.27.18-.43.18-.17 0-.32-.06-.44-.18a.622.622 0 0 1-.18-.43v-4.93c0-.16.07-.32.18-.43.12-.12.27-.18.44-.18.16 0 .32.06.43.18.12.11.18.27.18.43v4.93Zm-.61-6.16c-.18 0-.36-.05-.51-.15a.875.875 0 0 1-.34-.42.963.963 0 0 1-.06-.53c.04-.18.13-.34.26-.47.12-.13.29-.22.47-.25.18-.04.36-.02.53.05.17.07.31.19.42.34.1.15.15.33.15.51 0 .25-.1.48-.27.65-.17.18-.41.27-.65.27Zm7.38 6.16c0 .16-.06.32-.18.43-.11.12-.27.18-.43.18-.17 0-.32-.06-.44-.18a.622.622 0 0 1-.18-.43v-2.77a1.536 1.536 0 1 0-3.07 0v2.77c0 .16-.07.32-.19.43-.11.12-.27.18-.43.18a.62.62 0 0 1-.44-.18.622.622 0 0 1-.18-.43v-4.93c.01-.15.06-.29.16-.4.1-.12.24-.19.39-.2.15-.02.3.02.42.1.13.09.21.22.25.37.42-.29.9-.45 1.4-.48.51-.02 1.01.09 1.45.32.44.24.82.59 1.08 1.02.26.43.39.93.39 1.43v2.77Z" fill="#00AFFF" fill-rule="evenodd"/></g></svg><svg fill="none" viewBox="0 0 24 24" id="i-lock" xmlns="http://www.w3.org/2000/svg"><defs><clipPath id="ma"><path fill="#fff" fill-opacity="0" d="M0 0h24v24H0z"/></clipPath></defs><path fill="none" d="M0 0h24v24H0z"/><g clip-path="url(#ma)"><path d="M17.92 8.2h-2.37V6.43c0-.95-.37-1.85-1.04-2.52A3.584 3.584 0 0 0 12 2.87c-.95 0-1.85.38-2.52 1.04-.67.67-1.04 1.57-1.04 2.52V8.2H6.07c-.32 0-.62.13-.84.35-.22.22-.35.52-.35.84v8.29c0 .32.13.62.35.84.22.23.52.35.84.35h11.85c.32 0 .62-.12.84-.35.22-.22.35-.52.35-.84V9.39c0-.32-.13-.62-.35-.84-.22-.22-.52-.35-.84-.35Zm-5.33 5.83v1.88c0 .15-.07.3-.18.42a.59.59 0 0 1-.83 0 .592.592 0 0 1-.18-.42v-1.88c-.39-.14-.73-.42-.94-.78-.21-.36-.29-.79-.22-1.2A1.79 1.79 0 0 1 12 10.57a1.783 1.783 0 0 1 1.53 2.68c-.21.36-.55.64-.94.78Zm1.78-5.83H9.62V6.43c0-.63.25-1.24.7-1.68.44-.45 1.05-.69 1.68-.69.62 0 1.23.24 1.67.69.45.44.7 1.05.7 1.68V8.2Z" fill="#FFF" fill-rule="evenodd"/></g></svg><svg fill="none" viewBox="0 0 24 24" id="i-mail" xmlns="http://www.w3.org/2000/svg"><defs><clipPath id="na"><path transform="translate(0 -.766)" fill="#fff" fill-opacity="0" d="M0 0h24v24H0z"/></clipPath></defs><g clip-path="url(#na)"><path d="M19.38 5.08H4.61c-.16 0-.32.06-.43.18-.12.11-.18.27-.18.43v10.46c0 .33.12.64.36.87.23.23.54.36.87.36h13.53c.33 0 .64-.13.87-.36.24-.23.37-.54.37-.87V5.69c0-.16-.07-.32-.19-.43a.582.582 0 0 0-.43-.18Zm-9.64 6.15-4.51 4.14V7.09l4.51 4.14Zm.91.83.93.85c.11.11.26.17.41.17.16 0 .3-.06.42-.17l.92-.85 4.46 4.09H6.19l4.46-4.09Zm3.6-.83 4.51-4.14v8.28l-4.51-4.14Z" fill="#8A90A4"/></g></svg><svg fill="none" viewBox="0 0 24 24" id="i-phone" xmlns="http://www.w3.org/2000/svg"><defs><clipPath id="oa"><path transform="translate(0 -.766)" fill="#fff" fill-opacity="0" d="M0 0h24v24H0z"/></clipPath></defs><g clip-path="url(#oa)"><path d="M20.36 14.94a4.468 4.468 0 0 1-1.5 2.8c-.82.72-1.88 1.12-2.97 1.11-6.35 0-11.52-5.16-11.52-11.52 0-1.09.39-2.15 1.11-2.97.72-.82 1.72-1.35 2.8-1.5.28-.03.56.03.79.16.24.14.43.35.54.61L11.3 7.4v.01c.09.19.12.4.1.61-.01.21-.08.42-.2.59-.01.03-.03.05-.04.07l-1.67 1.97c.6 1.22 1.87 2.48 3.11 3.08l1.94-1.66c.02-.01.04-.03.06-.04.18-.12.38-.19.6-.21.21-.02.42.01.62.1h.01l3.77 1.69a1.287 1.287 0 0 1 .76 1.33Z" fill="#8A90A4"/></g></svg><svg viewBox="0 0 32 32" id="i-play-video" xmlns="http://www.w3.org/2000/svg"><defs><clipPath id="pa"><path fill-opacity="0" d="M0 0h32v32H0z"/></clipPath></defs><g clip-path="url(#pa)"><path d="M25.39 13.62c1.78 1.06 1.78 3.69 0 4.75l-13.33 7.92c-1.78 1.06-4-.26-4-2.38V8.08c0-2.12 2.22-3.44 4-2.38l13.33 7.92Z"/></g></svg><svg fill="none" viewBox="0 0 24 24" id="i-plus" xmlns="http://www.w3.org/2000/svg"><defs><clipPath id="qa"><path fill="#fff" fill-opacity="0" d="M0 0h24v24H0z"/></clipPath></defs><path fill="none" d="M0 0h24v24H0z"/><g clip-path="url(#qa)"><path d="M11 5h2a1 1 0 0 1 1 1v4.5h4.5a1 1 0 0 1 1 1v2a1 1 0 0 1-1 1H14V19a1 1 0 0 1-1 1h-2a1 1 0 0 1-1-1v-4.5H5.5a1 1 0 0 1-1-1v-2a1 1 0 0 1 1-1H10V6a1 1 0 0 1 1-1Z" clip-rule="evenodd" fill="#11B684" fill-rule="evenodd"/></g></svg><svg fill="none" viewBox="0 0 24 24" id="i-sorting" xmlns="http://www.w3.org/2000/svg"><defs><clipPath id="ra"><path fill="#fff" fill-opacity="0" d="M0 0h24v24H0z"/></clipPath></defs><path fill="none" d="M0 0h24v24H0z"/><g clip-path="url(#ra)"><path d="M11.12 11c0 .17-.07.34-.19.47-.13.12-.3.19-.47.19h-6c-.18 0-.35-.07-.48-.19a.702.702 0 0 1-.19-.47c0-.18.07-.35.19-.48.13-.12.3-.19.48-.19h6c.17 0 .34.07.47.19.12.13.19.3.19.48ZM4.46 6.33h11.33c.18 0 .35-.07.47-.2a.65.65 0 0 0 0-.94.665.665 0 0 0-.47-.19H4.46c-.18 0-.35.07-.48.19-.12.13-.19.29-.19.47a.665.665 0 0 0 .67.67Zm4.66 9.33H4.46a.665.665 0 0 0-.67.67c0 .18.07.34.19.47.13.12.3.2.48.2h4.66c.18 0 .35-.08.47-.2a.65.65 0 0 0 0-.94.634.634 0 0 0-.47-.2Zm10.62-1.59a.722.722 0 0 0-.25-.3.696.696 0 0 0-.37-.11h-2.66v-4a.665.665 0 0 0-.67-.66.665.665 0 0 0-.67.66v4h-2.66c-.14 0-.27.04-.37.11-.11.08-.2.18-.25.3-.05.13-.06.26-.04.39.03.13.09.25.18.34l3.34 3.33c.06.07.13.11.21.15.08.03.17.05.26.05s.17-.02.25-.05c.09-.04.16-.08.22-.15l3.33-3.33c.1-.09.16-.21.19-.34.02-.13.01-.26-.04-.39Z" fill="#21242F" fill-rule="evenodd"/></g></svg><svg fill="none" viewBox="0 0 24 24" id="i-telegram" xmlns="http://www.w3.org/2000/svg"><defs><clipPath id="sa"><path fill="#fff" fill-opacity="0" d="M0 0h24v24H0z"/></clipPath></defs><g clip-path="url(#sa)"><path d="M19.77 4.63a.677.677 0 0 0-.65-.11L4.64 10.19c-.2.08-.38.22-.49.41a.96.96 0 0 0-.15.62c.02.22.11.43.26.59.14.17.34.28.56.32l3.75.74v4.18c0 .23.06.45.19.64s.31.33.52.42c.21.08.44.1.67.06.22-.05.42-.16.58-.33l1.81-1.87 2.87 2.51c.21.18.47.28.75.28.12 0 .24-.02.36-.05.19-.06.36-.17.49-.32.13-.14.23-.32.27-.51l2.9-12.62c.02-.11.02-.23-.02-.34a.614.614 0 0 0-.19-.29Zm-3.81 12.99-5.9-5.18 8.5-6.09-2.6 11.27Z" fill="#00AFFF"/></g></svg><svg fill="none" viewBox="0 0 24 24" id="i-tiktok" xmlns="http://www.w3.org/2000/svg"><defs><clipPath id="ta"><path fill="#fff" fill-opacity="0" d="M0 0h24v24H0z"/></clipPath></defs><path fill="none" d="M0 0h24v24H0z"/><g clip-path="url(#ta)"><path d="M19.7 8.74v2.96c0 .16-.06.31-.17.42-.12.11-.27.17-.42.17-1.24 0-2.46-.29-3.56-.87v2.95c0 1.49-.59 2.92-1.65 3.98A5.649 5.649 0 0 1 9.92 20c-1.49 0-2.92-.6-3.98-1.65a5.624 5.624 0 0 1-1.65-3.98c0-2.74 1.99-5.15 4.64-5.63.08-.01.17-.01.25.02a.548.548 0 0 1 .39.32c.04.08.05.16.05.25v3.16c0 .11-.03.22-.09.32-.06.09-.14.17-.24.22-.24.11-.45.29-.6.51-.14.21-.23.47-.25.73-.01.27.04.53.16.77s.3.43.53.58c.22.14.48.22.75.23.26 0 .52-.06.76-.19.23-.13.42-.31.56-.54.13-.23.2-.49.2-.75V4.59c0-.16.06-.31.18-.42A.59.59 0 0 1 12 4h2.96c.16 0 .31.06.42.17.11.11.17.26.17.42 0 .94.38 1.84 1.04 2.51.67.67 1.57 1.04 2.52 1.04.15 0 .3.07.42.18.11.11.17.26.17.42Z" fill="#00AFFF" fill-rule="evenodd"/></g></svg><svg fill="none" viewBox="0 0 24 24" id="i-triangle-arrow" xmlns="http://www.w3.org/2000/svg"><defs><clipPath id="ua"><path fill="#fff" fill-opacity="0" d="M0 0h24v24H0z"/></clipPath></defs><g clip-path="url(#ua)"><path d="m16.86 10.85-4.54 5c-.05.04-.1.08-.15.11-.06.02-.12.04-.17.04-.06 0-.12-.02-.18-.04-.05-.03-.1-.07-.15-.11l-4.54-5a.495.495 0 0 1-.13-.26c-.01-.09 0-.2.03-.29.03-.09.09-.17.17-.22.07-.06.16-.08.25-.08h9.09c.09 0 .18.02.25.08.08.05.14.13.17.22s.04.2.03.29c-.02.1-.06.19-.13.26Z" fill="#8A90A4" fill-rule="evenodd"/></g></svg><svg fill="none" viewBox="0 0 24 24" id="i-viber" xmlns="http://www.w3.org/2000/svg"><defs><clipPath id="va"><path fill="#fff" fill-opacity="0" d="M0 0h24v24H0z"/></clipPath></defs><g clip-path="url(#va)"><path d="M12.382 4.011c3.59.021 5.186 1.197 5.585 1.554 1.323 1.133 2.037 3.674 1.533 7.705-.483 3.884-3.401 4.262-3.926 4.43-.231.084-2.205.567-4.766.357-.273.335-.65.755-.924 1.05-.094.098-.181.195-.264.288-.358.401-.632.709-1.058.572-.42-.126-.4-.777-.4-.777v-1.616c-3.757-1.071-3.694-4.955-3.652-7.034.042-2.078.44-3.737 1.595-4.891 2.058-1.89 6.277-1.638 6.277-1.638Zm2.814 12.534c.44-.126 2.813-.336 3.212-3.59.399-3.338-.168-5.627-1.26-6.592-.336-.315-1.784-1.218-4.807-1.24 0 0-3.59-.23-5.333 1.345-.966.965-1.28 2.372-1.323 4.114l-.003.225c-.028 1.789-.075 4.872 2.964 5.717 0 0-.021 2.477-.021 2.687 0 .147.02.252.104.273a.322.322 0 0 0 .231-.105c.525-.525 2.142-2.477 2.142-2.477 2.183.126 3.905-.294 4.094-.357Zm.553-5.333q0-1.407-.657-2.362-.19-.277-.436-.516-.429-.416-.939-.669-.781-.386-1.754-.386a.2.2 0 0 1-.203-.203.2.2 0 0 1 .203-.202q1.055 0 1.908.415.58.282 1.067.755.302.294.53.638.686 1.038.686 2.53a.2.2 0 0 1-.202.203.2.2 0 0 1-.203-.202Zm-2.632 1.785c-.147.189-.44.168-.44.168-2.08-.546-2.604-2.624-2.604-2.624s-.02-.294.168-.441l.378-.294c.168-.147.294-.504.105-.84-.126-.189-.336-.525-.483-.735-.168-.23-.546-.693-.546-.693-.189-.23-.462-.273-.756-.126a3.547 3.547 0 0 0-.755.63c-.19.21-.294.42-.315.63v.084c0 .105.02.189.042.273.084.336.315.86.797 1.742.315.567.651 1.05.966 1.45.168.21.357.419.588.65l.084.084c.21.23.44.42.65.588.4.315.883.65 1.45.966.902.482 1.427.713 1.742.797.084.021.189.042.273.042h.084c.21-.042.42-.126.63-.315.273-.23.483-.482.63-.755.146-.294.104-.567-.126-.756 0 0-.462-.378-.693-.546a6.276 6.276 0 0 0-.735-.483c-.357-.189-.693-.063-.84.126l-.294.378Zm-.957-4.908a.2.2 0 0 0 .186.218q.95.075 1.546.574.11.093.21.2.213.234.35.505.267.528.248 1.2a.2.2 0 0 0 .196.209.2.2 0 0 0 .208-.197q.017-.584-.164-1.092-.085-.24-.212-.454-.139-.237-.328-.443-.147-.161-.316-.294-.677-.53-1.707-.612a.2.2 0 0 0-.217.186Zm.463 1.31a.2.2 0 0 1-.19-.213.2.2 0 0 1 .212-.191q.606.033.958.348l.062.06q.354.368.39 1.043a.2.2 0 0 1-.192.213.2.2 0 0 1-.213-.192q-.027-.524-.277-.783-.248-.258-.75-.285Z" clip-rule="evenodd" fill="#00AFFF" fill-rule="evenodd"/></g></svg><svg fill="none" viewBox="0 0 24 24" id="i-youtube" xmlns="http://www.w3.org/2000/svg"><defs><clipPath id="wa"><path fill="#fff" fill-opacity="0" d="M0 0h24v24H0z"/></clipPath></defs><path fill="none" d="M0 0h24v24H0z"/><g clip-path="url(#wa)"><path d="M20.54 7.3c-.08-.3-.22-.57-.42-.8-.21-.23-.46-.41-.75-.52-2.75-1.07-7.13-1.06-7.37-1.06-.25 0-4.63-.01-7.38 1.06-.29.11-.54.29-.75.52-.2.23-.34.5-.42.8C3.24 8.1 3 9.56 3 12c0 2.43.24 3.89.45 4.69.08.3.22.57.42.8.21.23.46.41.75.52 2.63 1.02 6.76 1.06 7.32 1.06h.11c.56 0 4.69-.04 7.32-1.06.29-.11.54-.29.75-.52.2-.23.34-.5.42-.8.21-.8.46-2.26.46-4.69 0-2.44-.25-3.9-.46-4.7Zm-5.8 4.96-3.85 2.57c-.05.04-.11.06-.17.06-.05 0-.11-.01-.16-.04a.374.374 0 0 1-.13-.12.317.317 0 0 1-.04-.16V9.42c0-.05.01-.11.04-.16s.08-.09.13-.12.11-.04.16-.04c.06.01.12.02.17.06l3.85 2.57c.05.03.09.07.11.11.03.05.04.1.04.16 0 .05-.01.1-.04.15a.29.29 0 0 1-.11.11Z" fill="#00AFFF" fill-rule="evenodd"/></g></svg></svg>